<svg width="24" height="24" viewBox="0 0 24 24" fill="none" xmlns="http://www.w3.org/2000/svg">
<path fill-rule="evenodd" clip-rule="evenodd" d="M19 3H5C3.346 3 2 4.6825 2 6.75V13V14C2 15.654 3.346 17 5 17H11V19H7C6.45 19 6 19.45 6 20C6 20.55 6.45 21 7 21H17C17.55 21 18 20.55 18 20C18 19.45 17.55 19 17 19H13V17H19C20.654 17 22 15.654 22 14V13V6.75C22 4.6825 20.654 3 19 3ZM12.3131 13.9995H11.6876V13.616C11.6876 13.1484 11.3996 12.7285 10.9431 12.54C10.4976 12.354 9.99606 12.4474 9.66506 12.7785L9.39256 13.051L8.94906 12.6075L9.21956 12.338C9.55256 12.0065 9.64706 11.504 9.45456 11.044C9.27156 10.5995 8.85106 10.312 8.38356 10.312H8.00006V9.68695H8.38356C8.85106 9.68695 9.27156 9.39895 9.45956 8.94245C9.64606 8.49695 9.55206 7.99495 9.22106 7.66395L8.94856 7.39195L9.39256 6.94795L9.66206 7.21845C9.99356 7.55195 10.4961 7.64645 10.9556 7.45395C11.4001 7.27045 11.6876 6.85045 11.6876 6.38295V5.99945H12.3131V6.38295C12.3131 6.85045 12.6011 7.27045 13.0576 7.45895C13.5031 7.64495 14.0046 7.55145 14.3356 7.22045L14.6081 6.94795L15.0516 7.39145L14.7811 7.66095C14.4481 7.99245 14.3536 8.49495 14.5461 8.95495C14.7291 9.39945 15.1496 9.68695 15.6171 9.68695H16.0001V10.312H15.6171C15.1496 10.312 14.7291 10.6 14.5471 11.0415L14.5416 11.0555C14.5416 11.056 14.5411 11.0565 14.5411 11.0565C14.3546 11.502 14.4481 12.004 14.7796 12.335L15.0521 12.607L14.6081 13.051L14.3386 12.7805C14.0076 12.4475 13.5051 12.3534 13.0451 12.545C12.6006 12.7284 12.3131 13.1484 12.3131 13.616V13.9995ZM11.5255 15H12.4715C12.9355 15 13.313 14.6225 13.313 14.1585V13.6165C13.313 13.543 13.3715 13.493 13.4445 13.4625C13.4995 13.4395 13.5775 13.4335 13.63 13.486L14.0125 13.8705C14.171 14.03 14.3825 14.1175 14.607 14.1175H14.608C14.8325 14.1175 15.043 14.0305 15.202 13.8715L15.872 13.2015C16.199 12.8745 16.199 12.3415 15.872 12.013L15.4865 11.628C15.4345 11.576 15.4405 11.4985 15.4635 11.443C15.4637 11.4426 15.4645 11.4405 15.4656 11.4379C15.4676 11.4332 15.4702 11.4268 15.4705 11.4265C15.493 11.3715 15.5435 11.3125 15.617 11.3125H16.162C16.6245 11.3125 17 10.937 17 10.4745V9.5285C17 9.0645 16.623 8.6875 16.159 8.6875H15.617C15.543 8.6875 15.493 8.629 15.463 8.5555C15.4395 8.5 15.434 8.423 15.4865 8.3705L15.871 7.9875C16.0305 7.829 16.118 7.6175 16.118 7.3935C16.1185 7.1685 16.0315 6.9575 15.8725 6.799L15.202 6.1285C14.8745 5.8005 14.3415 5.8015 14.0135 6.1285L13.6285 6.514C13.576 6.5665 13.499 6.56 13.4265 6.53C13.3715 6.5075 13.313 6.457 13.313 6.3835V5.838C13.313 5.376 12.937 5 12.475 5H11.529C11.065 5 10.6875 5.3775 10.6875 5.8415V6.3835C10.6875 6.457 10.629 6.507 10.556 6.5375C10.5005 6.561 10.423 6.567 10.3705 6.514L9.988 6.1295C9.8295 5.97 9.618 5.8825 9.3935 5.8825H9.3925C9.168 5.8825 8.9575 5.9695 8.7985 6.1285L8.1285 6.7985C7.8015 7.1255 7.8015 7.6585 8.1285 7.987L8.514 8.372C8.566 8.424 8.56 8.5015 8.53 8.5735C8.5075 8.6285 8.457 8.6875 8.3835 8.6875H7.8385C7.376 8.6875 7 9.063 7 9.5255V10.4715C7 10.9355 7.3775 11.3125 7.8415 11.3125H8.3835C8.4575 11.3125 8.5075 11.371 8.5375 11.4445C8.561 11.5 8.5665 11.577 8.514 11.6295L8.13 12.012C7.9705 12.171 7.883 12.382 7.8825 12.6065C7.8825 12.8315 7.9695 13.0425 8.1285 13.2015L8.7985 13.8715C9.126 14.1995 9.659 14.1985 9.987 13.8715L10.372 13.486C10.425 13.4345 10.502 13.4405 10.574 13.47C10.629 13.4925 10.6875 13.543 10.6875 13.6165V14.162C10.6875 14.624 11.0635 15 11.5255 15ZM11.2505 9.99957C11.2505 9.58607 11.587 9.24957 12.0005 9.24957C12.414 9.24957 12.7505 9.58607 12.7505 9.99957C12.7505 10.4131 12.414 10.7496 12.0005 10.7496C11.587 10.7496 11.2505 10.4131 11.2505 9.99957ZM10.2504 9.99951C10.2504 10.9645 11.0354 11.7495 12.0004 11.7495C12.9654 11.7495 13.7504 10.9645 13.7504 9.99951C13.7504 9.03451 12.9654 8.24951 12.0004 8.24951C11.0354 8.24951 10.2504 9.03451 10.2504 9.99951Z" fill="url(#paint0_linear_692_201)"/>
<defs>
<linearGradient id="paint0_linear_692_201" x1="3.51365" y1="4.0273" x2="19.0974" y2="22.6407" gradientUnits="userSpaceOnUse">
<stop stop-color="#33A9FF"/>
<stop offset="1" stop-color="#2D47D2"/>
</linearGradient>
</defs>
</svg>
