<svg width="20" height="20" viewBox="0 0 20 20" fill="none" xmlns="http://www.w3.org/2000/svg">
<path fill-rule="evenodd" clip-rule="evenodd" d="M4.59553 13.3333L5.57886 12.3483C5.89386 12.0333 6.06719 11.615 6.06719 11.17V7.27248C6.06719 6.14165 6.55886 5.06082 7.41719 4.30915C8.28219 3.55082 9.38386 3.21748 10.5314 3.36832C12.4705 3.62582 13.933 5.37915 13.933 7.44748V11.17C13.933 11.615 14.1064 12.0333 14.4205 12.3475L15.4047 13.3333H4.59553ZM11.6663 15.2841C11.6663 16.0333 10.9029 16.6666 9.99961 16.6666C9.09627 16.6666 8.33294 16.0333 8.33294 15.2841V15H11.6663V15.2841ZM17.1005 12.6733L15.5997 11.17V7.44748C15.5997 4.54665 13.5147 2.08248 10.7497 1.71665C9.14799 1.50332 7.53132 1.99248 6.31882 3.05582C5.09882 4.12415 4.40049 5.66082 4.40049 7.27248L4.39965 11.17L2.89882 12.6733C2.50799 13.065 2.39215 13.6475 2.60382 14.1583C2.81632 14.67 3.31049 15 3.86382 15H6.66632V15.2842C6.66632 16.9658 8.16132 18.3333 9.99965 18.3333C11.838 18.3333 13.333 16.9658 13.333 15.2842V15H16.1355C16.6888 15 17.1822 14.67 17.3938 14.1591C17.6063 13.6475 17.4913 13.0641 17.1005 12.6733Z" fill="white"/>
</svg>
