<svg width="25" height="25" viewBox="0 0 25 25" fill="none" xmlns="http://www.w3.org/2000/svg">
<path fill-rule="evenodd" clip-rule="evenodd" d="M13.8002 12.2857L18.0932 7.99272C18.4842 7.60172 18.4842 6.96972 18.0932 6.57872C17.7022 6.18772 17.0702 6.18772 16.6792 6.57872L12.3862 10.8717L8.09324 6.57872C7.70224 6.18772 7.07024 6.18772 6.67924 6.57872C6.28824 6.96972 6.28824 7.60172 6.67924 7.99272L10.9722 12.2857L6.67924 16.5787C6.28824 16.9697 6.28824 17.6017 6.67924 17.9927C6.87424 18.1877 7.13024 18.2857 7.38624 18.2857C7.64224 18.2857 7.89824 18.1877 8.09324 17.9927L12.3862 13.6997L16.6792 17.9927C16.8742 18.1877 17.1302 18.2857 17.3862 18.2857C17.6422 18.2857 17.8982 18.1877 18.0932 17.9927C18.4842 17.6017 18.4842 16.9697 18.0932 16.5787L13.8002 12.2857Z" fill="#A3A8C2"/>
</svg>
