<svg width="20" height="20" viewBox="0 0 20 20" fill="none" xmlns="http://www.w3.org/2000/svg">
<path fill-rule="evenodd" clip-rule="evenodd" d="M15.8334 15H4.16675C3.70759 15 3.33342 14.6266 3.33342 14.1666V6.04165L9.50009 10.6666C9.64842 10.7783 9.82425 10.8333 10.0001 10.8333C10.1759 10.8333 10.3518 10.7783 10.5001 10.6666L16.6668 6.04165V14.1666C16.6668 14.6266 16.2926 15 15.8334 15ZM15.2776 4.99998L10.0001 8.95831L4.72258 4.99998H15.2776ZM15.8334 3.33331H4.16671C2.78838 3.33331 1.66671 4.45498 1.66671 5.83331V14.1666C1.66671 15.545 2.78838 16.6666 4.16671 16.6666H15.8334C17.2117 16.6666 18.3334 15.545 18.3334 14.1666V5.83331C18.3334 4.45498 17.2117 3.33331 15.8334 3.33331Z" fill="white"/>
</svg>
