<svg width="25" height="25" viewBox="0 0 25 25" fill="none" xmlns="http://www.w3.org/2000/svg">
<path d="M3.24623 3.08578L15.8162 1.29078C15.8872 1.28061 15.9595 1.2858 16.0282 1.30601C16.097 1.32622 16.1606 1.36097 16.2147 1.40791C16.2689 1.45486 16.3123 1.51289 16.3421 1.57809C16.3718 1.64328 16.3872 1.71412 16.3872 1.78578V22.6318C16.3872 22.7034 16.3718 22.7741 16.3421 22.8392C16.3124 22.9043 16.2691 22.9623 16.2151 23.0092C16.161 23.0562 16.0976 23.0909 16.0289 23.1112C15.9603 23.1315 15.8881 23.1368 15.8172 23.1268L3.24523 21.3318C3.00685 21.2978 2.78872 21.179 2.63092 20.9971C2.47312 20.8153 2.38623 20.5826 2.38623 20.3418V4.07578C2.38623 3.835 2.47312 3.60229 2.63092 3.42043C2.78872 3.23856 3.00785 3.11973 3.24623 3.08578ZM4.38723 4.94378V19.4738L14.3872 20.9028V3.51478L4.38723 4.94378ZM17.3872 19.2088H20.3872V5.20878H17.3872V3.20878H21.3872C21.6524 3.20878 21.9068 3.31414 22.0943 3.50167C22.2819 3.68921 22.3872 3.94357 22.3872 4.20878V20.2088C22.3872 20.474 22.2819 20.7284 22.0943 20.9159C21.9068 21.1034 21.6524 21.2088 21.3872 21.2088H17.3872V19.2088ZM10.5872 12.2088L13.3872 16.2088H10.9872L9.38723 13.9228L7.78723 16.2088H5.38723L8.18723 12.2088L5.38723 8.20878H7.78723L9.38723 10.4948L10.9872 8.20878H13.3872L10.5872 12.2088Z" fill="#40BF6A"/>
</svg>
