<svg width="24" height="24" viewBox="0 0 24 24" fill="none" xmlns="http://www.w3.org/2000/svg">
<path d="M5 5.00003V19C5 19.2652 5.10536 19.5196 5.29289 19.7071C5.48043 19.8947 5.73478 20 6 20H9V18H7V6.00003H9V4.00003H6C5.73478 4.00003 5.48043 4.10539 5.29289 4.29292C5.10536 4.48046 5 4.73481 5 5.00003ZM19.242 4.03003L11.242 2.03003C11.0946 1.99327 10.9408 1.99057 10.7922 2.02213C10.6436 2.05369 10.5042 2.11869 10.3845 2.21218C10.2648 2.30568 10.1679 2.42522 10.1013 2.56173C10.0347 2.69824 10 2.84813 10 3.00003V21C9.99965 21.1521 10.034 21.3022 10.1005 21.4389C10.167 21.5756 10.2639 21.6953 10.3837 21.7889C10.5035 21.8824 10.6431 21.9474 10.7919 21.9788C10.9406 22.0102 11.0946 22.0072 11.242 21.97L19.242 19.97C19.4584 19.916 19.6506 19.7913 19.788 19.6155C19.9253 19.4397 19.9999 19.2231 20 19V5.00003C19.9999 4.77697 19.9253 4.56033 19.788 4.38457C19.6506 4.2088 19.4584 4.08401 19.242 4.03003ZM15 12.188C14.9885 12.4455 14.8781 12.6886 14.6918 12.8668C14.5055 13.0449 14.2577 13.1443 14 13.1443C13.7423 13.1443 13.4945 13.0449 13.3082 12.8668C13.1219 12.6886 13.0115 12.4455 13 12.188V11.811C13.0001 11.5458 13.1056 11.2915 13.2932 11.1041C13.4809 10.9166 13.7353 10.8114 14.0005 10.8115C14.2657 10.8117 14.52 10.9171 14.7075 11.1048C14.8949 11.2924 15.0001 11.5468 15 11.812V12.188Z" fill="url(#paint0_linear_692_231)"/>
<defs>
<linearGradient id="paint0_linear_692_231" x1="6.13524" y1="3.14174" x2="23.3242" y2="16.9999" gradientUnits="userSpaceOnUse">
<stop stop-color="#33A9FF"/>
<stop offset="1" stop-color="#2D47D2"/>
</linearGradient>
</defs>
</svg>
