<svg width="24" height="24" viewBox="0 0 24 24" fill="none" xmlns="http://www.w3.org/2000/svg">
<path d="M12.975 5.0925L10.35 7.7175L10.875 8.25L11.925 7.2075L12.75 8.0325V9.75C12.75 10.5825 12.0825 11.25 11.25 11.25H10.845C11.5862 12.0737 11.9975 13.1419 12 14.25C11.9985 14.5014 11.9759 14.7523 11.9325 15H14.2725C14.3647 14.1752 14.7576 13.4134 15.376 12.86C15.9944 12.3065 16.7951 12.0004 17.625 12C18.2926 12.0004 18.9451 12.1987 19.5 12.57V9C19.5 8.1675 18.8325 7.5 18 7.5H13.2825L12.4575 6.675L13.5 5.625L12.975 5.0925ZM6 8.25C5.5875 8.25 5.25 8.5875 5.25 9C5.25 9.4125 5.5875 9.75 6 9.75H9.75C9.75 9.35217 9.59196 8.97064 9.31066 8.68934C9.02936 8.40803 8.64782 8.25 8.25 8.25H6ZM7.5 10.5C7.10253 10.5001 6.7076 10.5634 6.33 10.6875L6.6 11.385L6.2475 11.52L6 10.8225C5.20281 11.1687 4.55065 11.7811 4.155 12.555L4.8375 12.8625L4.68 13.2L4.005 12.9C3.83759 13.3305 3.75114 13.7881 3.75 14.25C3.7501 14.6475 3.81339 15.0424 3.9375 15.42L4.635 15.15L4.77 15.5025L4.0725 15.75C4.41874 16.5472 5.03114 17.1993 5.805 17.595L6.105 16.9125L6.45 17.07L6.15 17.745C6.58046 17.9124 7.03814 17.9989 7.5 18C7.89747 17.9999 8.2924 17.9366 8.67 17.8125L8.4 17.115L8.7525 16.98L9 17.6775C9.79719 17.3313 10.4494 16.7189 10.845 15.945L10.1625 15.645L10.32 15.3L10.995 15.6C11.1624 15.1695 11.2489 14.7119 11.25 14.25C11.2499 13.8525 11.1866 13.4576 11.0625 13.08L10.365 13.35L10.23 12.9975L10.9275 12.75C10.5813 11.9528 9.96886 11.3006 9.195 10.905L8.895 11.5875L8.55 11.43L8.85 10.755C8.41954 10.5876 7.96186 10.5011 7.5 10.5ZM7.5 12C8.09674 12 8.66903 12.2371 9.09099 12.659C9.51295 13.081 9.75 13.6533 9.75 14.25C9.75 14.8467 9.51295 15.419 9.09099 15.841C8.66903 16.2629 8.09674 16.5 7.5 16.5C6.90326 16.5 6.33097 16.2629 5.90901 15.841C5.48705 15.419 5.25 14.8467 5.25 14.25C5.25 13.6533 5.48705 13.081 5.90901 12.659C6.33097 12.2371 6.90326 12 7.5 12ZM17.625 12.75C16.9288 12.75 16.2611 13.0266 15.7688 13.5188C15.2766 14.0111 15 14.6788 15 15.375C15 16.0712 15.2766 16.7389 15.7688 17.2312C16.2611 17.7234 16.9288 18 17.625 18C18.3212 18 18.9889 17.7234 19.4812 17.2312C19.9734 16.7389 20.25 16.0712 20.25 15.375C20.25 14.6788 19.9734 14.0111 19.4812 13.5188C18.9889 13.0266 18.3212 12.75 17.625 12.75ZM17.625 14.25C17.9234 14.25 18.2095 14.3685 18.4205 14.5795C18.6315 14.7905 18.75 15.0766 18.75 15.375C18.75 15.6734 18.6315 15.9595 18.4205 16.1705C18.2095 16.3815 17.9234 16.5 17.625 16.5C17.3266 16.5 17.0405 16.3815 16.8295 16.1705C16.6185 15.9595 16.5 15.6734 16.5 15.375C16.5 15.0766 16.6185 14.7905 16.8295 14.5795C17.0405 14.3685 17.3266 14.25 17.625 14.25Z" fill="white"/>
</svg>
