<svg width="25" height="25" viewBox="0 0 25 25" fill="none" xmlns="http://www.w3.org/2000/svg">
<path fill-rule="evenodd" clip-rule="evenodd" d="M5.38628 11.2857C5.38628 7.97672 8.07728 5.28572 11.3863 5.28572C14.6953 5.28572 17.3863 7.97672 17.3863 11.2857C17.3863 14.5947 14.6953 17.2857 11.3863 17.2857C8.07728 17.2857 5.38628 14.5947 5.38628 11.2857ZM21.0932 19.5787L17.6982 16.1827C18.7512 14.8287 19.3862 13.1317 19.3862 11.2857C19.3862 6.87472 15.7972 3.28572 11.3862 3.28572C6.97523 3.28572 3.38623 6.87472 3.38623 11.2857C3.38623 15.6967 6.97523 19.2857 11.3862 19.2857C13.2322 19.2857 14.9292 18.6507 16.2832 17.5977L19.6792 20.9927C19.8742 21.1877 20.1302 21.2857 20.3862 21.2857C20.6422 21.2857 20.8982 21.1877 21.0932 20.9927C21.4842 20.6017 21.4842 19.9697 21.0932 19.5787Z" fill="#0094FF"/>
</svg>
