<svg width="24" height="24" viewBox="0 0 24 24" fill="none" xmlns="http://www.w3.org/2000/svg">
<path d="M9.00001 11.07H8.56501C7.97139 11.0485 7.37969 11.1493 6.82664 11.366C6.27359 11.5828 5.77098 11.9109 5.35001 12.33L5.23001 12.47V16.61H7.27001V14.26L7.54501 13.95L7.67001 13.805C8.32097 13.1362 9.1314 12.6441 10.025 12.375C9.57761 12.0345 9.22475 11.5853 9.00001 11.07Z" fill="white"/>
<path d="M18.67 12.315C18.2491 11.8959 17.7465 11.5678 17.1934 11.351C16.6404 11.1343 16.0487 11.0335 15.455 11.055C15.273 11.0555 15.0911 11.0655 14.91 11.085C14.6811 11.5684 14.3379 11.9888 13.91 12.31C14.864 12.5739 15.7282 13.0924 16.41 13.81L16.535 13.95L16.805 14.26V16.615H18.775V12.455L18.67 12.315Z" fill="white"/>
<path d="M8.55 10.0949H8.705C8.63298 9.47652 8.74148 8.85052 9.01741 8.29245C9.29334 7.73438 9.7249 7.2681 10.26 6.9499C10.066 6.65358 9.79843 6.41271 9.4834 6.25088C9.16837 6.08905 8.81672 6.0118 8.46287 6.02672C8.10902 6.04163 7.7651 6.14818 7.46481 6.33594C7.16451 6.5237 6.91812 6.78623 6.74977 7.09783C6.58143 7.40942 6.49689 7.75939 6.50443 8.11348C6.51198 8.46756 6.61135 8.81362 6.79283 9.11775C6.9743 9.42189 7.23165 9.67369 7.53967 9.84848C7.84769 10.0233 8.19583 10.1151 8.55 10.1149V10.0949Z" fill="white"/>
<path d="M15.215 9.71997C15.2211 9.83489 15.2211 9.95005 15.215 10.065C15.311 10.0802 15.4079 10.0885 15.505 10.09H15.6C15.9527 10.0712 16.2944 9.96138 16.592 9.77131C16.8896 9.58123 17.1328 9.31734 17.2982 9.00533C17.4635 8.69331 17.5452 8.3438 17.5354 7.99083C17.5255 7.63786 17.4244 7.29346 17.242 6.99115C17.0595 6.68883 16.8019 6.43892 16.4942 6.26573C16.1864 6.09254 15.8391 6.00199 15.486 6.00288C15.1329 6.00376 14.786 6.09607 14.4792 6.2708C14.1724 6.44553 13.916 6.69674 13.735 6.99997C14.1876 7.29543 14.5597 7.69862 14.818 8.17335C15.0763 8.64808 15.2127 9.17951 15.215 9.71997Z" fill="white"/>
<path d="M11.935 11.96C13.1694 11.96 14.17 10.9593 14.17 9.72499C14.17 8.49063 13.1694 7.48999 11.935 7.48999C10.7007 7.48999 9.70001 8.49063 9.70001 9.72499C9.70001 10.9593 10.7007 11.96 11.935 11.96Z" fill="white"/>
<path d="M12.055 13.15C11.4021 13.1236 10.7505 13.2296 10.1395 13.4616C9.52861 13.6936 8.97092 14.0468 8.50003 14.5L8.37503 14.64V17.805C8.37698 17.9081 8.39922 18.0098 8.44049 18.1043C8.48175 18.1988 8.54123 18.2842 8.61552 18.3557C8.68981 18.4272 8.77746 18.4834 8.87346 18.521C8.96946 18.5586 9.07194 18.577 9.17503 18.575H14.92C15.0231 18.577 15.1256 18.5586 15.2216 18.521C15.3176 18.4834 15.4053 18.4272 15.4795 18.3557C15.5538 18.2842 15.6133 18.1988 15.6546 18.1043C15.6958 18.0098 15.7181 17.9081 15.72 17.805V14.65L15.6 14.5C15.1322 14.0454 14.5764 13.6913 13.9669 13.4591C13.3573 13.227 12.7067 13.1218 12.055 13.15Z" fill="white"/>
</svg>
