<svg width="20" height="20" viewBox="0 0 20 20" fill="none" xmlns="http://www.w3.org/2000/svg">
<path fill-rule="evenodd" clip-rule="evenodd" d="M9.99963 3.3335C13.0396 3.3335 15.9171 4.496 18.1038 6.60766C18.4346 6.92683 18.4438 7.45516 18.1246 7.786C17.9613 7.95516 17.743 8.04016 17.5255 8.04016C17.3171 8.04016 17.108 7.96266 16.9463 7.806C15.0713 5.99683 12.6046 5.00016 9.99963 5.00016C7.39463 5.00016 4.92796 5.99683 3.05296 7.806C2.7238 8.12683 2.19546 8.11766 1.87463 7.786C1.5563 7.45516 1.56463 6.92683 1.8963 6.60766C4.08296 4.496 6.96046 3.3335 9.99963 3.3335ZM9.99995 7.5C7.97661 7.5 6.00995 8.33416 4.60411 9.79C4.28578 10.1217 4.29411 10.6492 4.62578 10.9683C4.95578 11.2883 5.48495 11.2792 5.80411 10.9483C6.89661 9.81583 8.42578 9.16666 9.99995 9.16666C11.5741 9.16666 13.1033 9.81583 14.1958 10.9483C14.3591 11.1175 14.5774 11.2025 14.7958 11.2025C15.0041 11.2025 15.2133 11.125 15.3741 10.9683C15.7058 10.6492 15.7141 10.1217 15.3958 9.79C13.9899 8.33416 12.0233 7.5 9.99995 7.5ZM7.10579 12.8358C7.88662 12.0825 8.91412 11.6667 9.99995 11.6667C11.0858 11.6667 12.1133 12.0825 12.8941 12.8358C13.225 13.1558 13.2341 13.6833 12.915 14.0142C12.7516 14.1842 12.5333 14.2692 12.315 14.2692C12.1066 14.2692 11.8975 14.1908 11.7366 14.035C10.7991 13.13 9.20079 13.13 8.26329 14.035C7.93412 14.355 7.40579 14.3458 7.08495 14.0142C6.76579 13.6833 6.77495 13.1558 7.10579 12.8358ZM9.16662 15.8333C9.16662 15.3733 9.53912 15 9.99995 15C10.4608 15 10.8333 15.3733 10.8333 15.8333C10.8333 16.2933 10.4608 16.6667 9.99995 16.6667C9.53912 16.6667 9.16662 16.2933 9.16662 15.8333Z" fill="white"/>
</svg>
